HIERARCHY
ROOT Hips
{
    OFFSET   0.000000   0.000000   0.000000
    CHANNELS 6 Xposition Yposition Zposition Zrotation Xrotation Yrotation
    JOINT Chest
    {
        OFFSET   0.000000   8.007240   0.000000
        CHANNELS 3 Zrotation Xrotation Yrotation
        JOINT Chest2
        {
            OFFSET   0.000000  22.077100   0.000000
            CHANNELS 3 Zrotation Xrotation Yrotation
            JOINT Neck
            {
                OFFSET   0.000000  23.254800   0.000000
                CHANNELS 3 Zrotation Xrotation Yrotation
                JOINT Head
                {
                    OFFSET   0.000000  14.370000   1.956600
                    CHANNELS 3 Zrotation Xrotation Yrotation
                    End Site
                    {
                        OFFSET   0.000000  19.566000   0.000000
                    }
                }
            }
            JOINT LeftCollar
            {
                OFFSET   3.911900  19.017000  -0.467064
                CHANNELS 3 Zrotation Xrotation Yrotation
                JOINT LeftShoulder
                {
                    OFFSET  10.383700   0.000000   0.000000
                    CHANNELS 3 Zrotation Xrotation Yrotation
                    JOINT LeftElbow
                    {
                        OFFSET  26.662100   0.001476   0.000517
                        CHANNELS 3 Zrotation Xrotation Yrotation
                        JOINT LeftWrist
                        {
                            OFFSET  28.869000  -0.000025  -0.000106
                            CHANNELS 3 Zrotation Xrotation Yrotation
                            JOINT LeftFinger0
                            {
                                OFFSET   2.044660  -2.323460   3.252850
                                CHANNELS 3 Zrotation Xrotation Yrotation
                                JOINT LeftFinger01
                                {
                                    OFFSET   3.088130   0.000000   0.000000
                                    CHANNELS 3 Zrotation Xrotation Yrotation
                                    JOINT LeftFinger02
                                    {
                                        OFFSET   2.639460   0.000000   0.000000
                                        CHANNELS 3 Zrotation Xrotation Yrotation
                                        End Site
                                        {
                                            OFFSET   2.582190   0.000000   0.000000
                                        }
                                    }
                                }
                            }
                            JOINT LeftFinger1
                            {
                                OFFSET   8.364480   0.000000   3.252850
                                CHANNELS 3 Zrotation Xrotation Yrotation
                                JOINT LeftFinger11
                                {
                                    OFFSET   4.646930   0.000000   0.000000
                                    CHANNELS 3 Zrotation Xrotation Yrotation
                                    JOINT LeftFinger12
                                    {
                                        OFFSET   2.323460   0.000000   0.000000
                                        CHANNELS 3 Zrotation Xrotation Yrotation
                                        End Site
                                        {
                                            OFFSET   2.273050   0.000000   0.000000
                                        }
                                    }
                                }
                            }
                            JOINT LeftFinger2
                            {
                                OFFSET   8.364490   0.000015   1.078090
                                CHANNELS 3 Zrotation Xrotation Yrotation
                                JOINT LeftFinger21
                                {
                                    OFFSET   5.111620   0.000000   0.000000
                                    CHANNELS 3 Zrotation Xrotation Yrotation
                                    JOINT LeftFinger22
                                    {
                                        OFFSET   2.788160   0.000016   0.000000
                                        CHANNELS 3 Zrotation Xrotation Yrotation
                                        End Site
                                        {
                                            OFFSET   2.727660   0.000000   0.000000
                                        }
                                    }
                                }
                            }
                            JOINT LeftFinger3
                            {
                                OFFSET   7.899780   0.000017  -1.078090
                                CHANNELS 3 Zrotation Xrotation Yrotation
                                JOINT LeftFinger31
                                {
                                    OFFSET   4.646930   0.000000   0.000000
                                    CHANNELS 3 Zrotation Xrotation Yrotation
                                    JOINT LeftFinger32
                                    {
                                        OFFSET   2.323470   0.000000   0.000000
                                        CHANNELS 3 Zrotation Xrotation Yrotation
                                        End Site
                                        {
                                            OFFSET   2.273050   0.000000   0.000000
                                        }
                                    }
                                }
                            }
                            JOINT LeftFinger4
                            {
                                OFFSET   7.435090   0.000000  -3.252850
                                CHANNELS 3 Zrotation Xrotation Yrotation
                                JOINT LeftFinger41
                                {
                                    OFFSET   3.717550   0.000000   0.000000
                                    CHANNELS 3 Zrotation Xrotation Yrotation
                                    JOINT LeftFinger42
                                    {
                                        OFFSET   1.858770   0.000000   0.000000
                                        CHANNELS 3 Zrotation Xrotation Yrotation
                                        End Site
                                        {
                                            OFFSET   1.818440   0.000000   0.000000
                                        }
                                    }
                                }
                            }
                        }
                    }
                }
            }
            JOINT RightCollar
            {
                OFFSET  -3.911900  19.017000  -0.467063
                CHANNELS 3 Zrotation Xrotation Yrotation
                JOINT RightShoulder
                {
                    OFFSET -10.383700   0.000019   0.000000
                    CHANNELS 3 Zrotation Xrotation Yrotation
                    JOINT RightElbow
                    {
                        OFFSET -26.662100   0.001175   0.000102
                        CHANNELS 3 Zrotation Xrotation Yrotation
                        JOINT RightWrist
                        {
                            OFFSET -28.869000   0.000016  -0.000079
                            CHANNELS 3 Zrotation Xrotation Yrotation
                            JOINT RightFinger0
                            {
                                OFFSET  -2.044660  -2.323490   3.252850
                                CHANNELS 3 Zrotation Xrotation Yrotation
                                JOINT RightFinger01
                                {
                                    OFFSET  -3.088140   0.000000   0.000000
                                    CHANNELS 3 Zrotation Xrotation Yrotation
                                    JOINT RightFinger02
                                    {
                                        OFFSET  -2.639460   0.000000   0.000000
                                        CHANNELS 3 Zrotation Xrotation Yrotation
                                        End Site
                                        {
                                            OFFSET  -2.582190   0.000000   0.000000
                                        }
                                    }
                                }
                            }
                            JOINT RightFinger1
                            {
                                OFFSET  -8.364480   0.000000   3.252850
                                CHANNELS 3 Zrotation Xrotation Yrotation
                                JOINT RightFinger11
                                {
                                    OFFSET  -4.646930   0.000000   0.000000
                                    CHANNELS 3 Zrotation Xrotation Yrotation
                                    JOINT RightFinger12
                                    {
                                        OFFSET  -2.323470   0.000000   0.000000
                                        CHANNELS 3 Zrotation Xrotation Yrotation
                                        End Site
                                        {
                                            OFFSET  -2.273050   0.000000   0.000000
                                        }
                                    }
                                }
                            }
                            JOINT RightFinger2
                            {
                                OFFSET  -8.364480   0.000000   1.078090
                                CHANNELS 3 Zrotation Xrotation Yrotation
                                JOINT RightFinger21
                                {
                                    OFFSET  -5.111620   0.000000   0.000000
                                    CHANNELS 3 Zrotation Xrotation Yrotation
                                    JOINT RightFinger22
                                    {
                                        OFFSET  -2.788160   0.000000   0.000000
                                        CHANNELS 3 Zrotation Xrotation Yrotation
                                        End Site
                                        {
                                            OFFSET  -2.727660   0.000000   0.000000
                                        }
                                    }
                                }
                            }
                            JOINT RightFinger3
                            {
                                OFFSET  -7.899780   0.000000  -1.078090
                                CHANNELS 3 Zrotation Xrotation Yrotation
                                JOINT RightFinger31
                                {
                                    OFFSET  -4.646930   0.000000   0.000000
                                    CHANNELS 3 Zrotation Xrotation Yrotation
                                    JOINT RightFinger32
                                    {
                                        OFFSET  -2.323470   0.000000   0.000000
                                        CHANNELS 3 Zrotation Xrotation Yrotation
                                        End Site
                                        {
                                            OFFSET  -2.273050   0.000000   0.000000
                                        }
                                    }
                                }
                            }
                            JOINT RightFinger4
                            {
                                OFFSET  -7.435090   0.000000  -3.252850
                                CHANNELS 3 Zrotation Xrotation Yrotation
                                JOINT RightFinger41
                                {
                                    OFFSET  -3.717550   0.000000   0.000000
                                    CHANNELS 3 Zrotation Xrotation Yrotation
                                    JOINT RightFinger42
                                    {
                                        OFFSET  -1.858770   0.000000   0.000000
                                        CHANNELS 3 Zrotation Xrotation Yrotation
                                        End Site
                                        {
                                            OFFSET  -1.818440   0.000000   0.000000
                                        }
                                    }
                                }
                            }
                        }
                    }
                }
            }
        }
    }
    JOINT LeftHip
    {
        OFFSET   9.783040   0.000000   0.000000
        CHANNELS 3 Zrotation Xrotation Yrotation
        JOINT LeftKnee
        {
            OFFSET   0.000032 -41.789100  -0.002222
            CHANNELS 3 Zrotation Xrotation Yrotation
            JOINT LeftAnkle
            {
                OFFSET   0.000087 -41.133200  -0.000135
                CHANNELS 3 Zrotation Xrotation Yrotation
                JOINT LeftToe
                {
                    OFFSET   0.000000  -6.358960  14.674500
                    CHANNELS 3 Zrotation Xrotation Yrotation
                    End Site
                    {
                        OFFSET   0.000000   0.000000   3.913200
                    }
                }
            }
        }
    }
    JOINT RightHip
    {
        OFFSET  -9.783040   0.000000   0.000000
        CHANNELS 3 Zrotation Xrotation Yrotation
        JOINT RightKnee
        {
            OFFSET   0.000047 -41.789100  -0.000896
            CHANNELS 3 Zrotation Xrotation Yrotation
            JOINT RightAnkle
            {
                OFFSET  -0.000117 -41.133300  -0.000248
                CHANNELS 3 Zrotation Xrotation Yrotation
                JOINT RightToe
                {
                    OFFSET   0.000000  -6.358970  14.674500
                    CHANNELS 3 Zrotation Xrotation Yrotation
                    End Site
                    {
                        OFFSET   0.000000   0.000000   3.913200
                    }
                }
            }
        }
    }
}
MOTION
Frames: 4
Frame Time:   0.016667
 -0.049793  89.378500  -0.204044  -1.032270   1.124150   1.613210   1.099520   0.823205  -0.086490   2.200650   1.644600  -0.188791  -1.571120  -0.064232  -0.002656  -2.581570  -0.130406   3.578830  -4.008420   1.754650   8.905730 -78.542100   2.411010   2.743550   1.036410   5.941810 -13.121900   2.767600  -5.942060  -6.979630  35.040200  21.358300 -62.880100 -26.142700  -0.005887   0.011738  -8.071330  -0.002939   0.002327 -26.743700  -1.301940   2.581650 -21.920200  -0.001555  -0.002236 -15.344200   0.005009  -0.001820 -28.343400  -4.008430   7.388010 -37.455900  -0.001853  -0.000802 -24.933600   0.010468  -0.000918 -26.918000  -3.830710   7.484200 -27.713200   0.008041   0.000704 -18.454900   0.001901   0.000361 -27.242700  -3.869800   7.464950 -41.240700  -0.001806   0.000487 -27.468300   0.002233  -0.001816   5.018900   4.322100   6.667190  72.963600  -5.401740  -3.884560   4.971760  -7.062150   9.108080 -15.515000  -6.823760   4.402210 -57.450700  52.287300 104.104000   4.349460   0.001210  -0.007998  -2.825290   0.000726  -0.000726  25.431300  -0.534111  -1.123060  20.811700  -0.002417   0.000000  14.568200  -0.001672   0.001643  27.541200  -2.068390  -3.983990  29.773700   0.001609  -0.001069  19.829300  -0.011430  -0.000853  28.188000  -2.125400  -3.960790  33.787800  -0.007854   0.002536  22.502600   0.000346  -0.004136  31.133100  -2.327140  -3.845830  46.816900  -0.005006   0.002278  31.180000  -0.003025   0.000000   3.729490   2.169840   0.533298   0.299787   0.056164  13.928700  -3.863710  -3.467410  -1.052160  -0.000000   0.000000   0.000000  -1.734960   2.373550  -2.933730   1.843670   0.344532 -13.089300   1.057650  -3.354230  -1.495080   0.000000   0.000000   0.000000
 -0.049756  89.378500  -0.210466  -1.032250   1.117990   1.620950   1.099600   0.824058  -0.086352   2.200790   1.646300  -0.188535  -1.571050  -0.064001  -0.002656  -2.581580  -0.130213   3.583010  -4.011890   1.748740   8.914620 -78.542200   2.411010   2.743650   1.038200   5.948870 -13.122100   2.768050  -5.939070  -6.979100  35.047900  21.380700 -62.881900 -26.150900  -0.006117   0.011802  -8.075420  -0.003053   0.002349 -26.743200  -1.306940   2.591440 -21.920300  -0.001560  -0.002255 -15.344300   0.005003  -0.001833 -28.343400  -4.008430   7.388000 -37.453000  -0.001872  -0.000817 -24.933500   0.010463  -0.000927 -26.918000  -3.830710   7.484190 -27.712700   0.008041   0.000707 -18.454900   0.001892   0.000362 -27.239700  -3.869800   7.464940 -41.237600  -0.001820   0.000474 -27.465300   0.002211  -0.001793   5.018410   4.322000   6.675170  72.970000  -5.393880  -3.884510   4.964020  -7.062320   9.099710 -15.523600  -6.837700   4.402510 -57.485100  52.309300 104.159000   4.331530   0.001207  -0.008002  -2.834250   0.000720  -0.000724  25.440800  -0.527572  -1.108850  20.819400  -0.002416   0.000000  14.573600  -0.001669   0.001651  27.545200  -2.068420  -3.972840  29.790700   0.001613  -0.001069  19.840700  -0.011432  -0.000852  28.188900  -2.119630  -3.949710  33.808300  -0.007851   0.002541  22.516300   0.000346  -0.004137  31.145500  -2.320750  -3.834680  46.834800  -0.005005   0.002278  31.191900  -0.003027   0.000000   3.729600   2.158440   0.533493   0.299500   0.079351  13.928200  -3.866770  -3.474710  -1.055710  -0.000000   0.000000   0.000000  -1.735620   2.366690  -2.936230   1.844630   0.360641 -13.095400   1.060010  -3.357340  -1.495350  -0.000000   0.000000   0.000000
 -0.049692  89.378400  -0.221262  -1.032190   1.107170   1.633590   1.099680   0.825682  -0.086210   2.200930   1.649540  -0.188279  -1.570970  -0.063770  -0.002651  -2.581620  -0.129890   3.591250  -4.017360   1.739200   8.927540 -78.542200   2.411010   2.743790   1.039980   5.955930 -13.122200   2.769500  -5.930520  -6.975560  35.056700  21.408700 -62.879000 -26.164600  -0.006501   0.011939  -8.082310  -0.003244   0.002396 -26.742600  -1.314060   2.605610 -21.920400  -0.001573  -0.002298 -15.344400   0.004991  -0.001863 -28.343400  -4.008440   7.387990 -37.447900  -0.001912  -0.000853 -24.933300   0.010450  -0.000948 -26.918000  -3.830710   7.484170 -27.710100   0.008038   0.000718 -18.454900   0.001867   0.000364 -27.234000  -3.869800   7.464940 -41.230700  -0.001852   0.000444 -27.459600   0.002155  -0.001733   5.017630   4.321870   6.687140  72.980700  -5.375420  -3.884400   4.952010  -7.062490   9.091330 -15.532000  -6.851620   4.403830 -57.516300  52.341400 104.224000   4.313610   0.001203  -0.008018  -2.843210   0.000715  -0.000721  25.458300  -0.518433  -1.088800  20.833500  -0.002415   0.000000  14.583500  -0.001667   0.001659  27.551400  -2.068460  -3.957640  29.820700   0.001620  -0.001071  19.860600  -0.011435  -0.000846  28.190000  -2.112010  -3.934610  33.844400  -0.007846   0.002554  22.540300   0.000350  -0.004139  31.168000  -2.314200  -3.819300  46.867800  -0.005002   0.002279  31.213900  -0.003033   0.000000   3.729840   2.142950   0.533769   0.299846   0.111665  13.927700  -3.871070  -3.482000  -1.062770  -0.000000   0.000000   0.000000  -1.736160   2.359840  -2.941320   1.844270   0.376750 -13.101600   1.062280  -3.360440  -1.497200  -0.000000   0.000000   0.000000
 -0.049621  89.378300  -0.229865  -1.032670   1.097570   1.643530   1.098450   0.827180  -0.086205   2.198490   1.652560  -0.188281  -1.571080  -0.063876  -0.002638  -2.581690  -0.129566   3.598930  -4.021390   1.731740   8.932280 -78.542500   2.415440   2.743860   1.038270   5.954850 -13.121400   2.772720  -5.913560  -6.964680  35.058600  21.418300 -62.868800 -26.176700  -0.006888   0.012132  -8.088380  -0.003443   0.002462 -26.742200  -1.317560   2.613360 -21.920700  -0.001592  -0.002357 -15.344600   0.004973  -0.001909 -28.343400  -4.008440   7.387980 -37.441900  -0.001969  -0.000907 -24.933600   0.010429  -0.000980 -26.918000  -3.830700   7.484120 -27.702400   0.008031   0.000738 -18.450600   0.001831   0.000368 -27.226000  -3.869800   7.464920 -41.219000  -0.001896   0.000401 -27.451700   0.002069  -0.001640   5.017090   4.321870   6.693340  72.990000  -5.349220  -3.881490   4.942820  -7.051740   9.096040 -15.519200  -6.848940   4.414000 -57.502100  52.354400 104.237000   4.319770   0.001210  -0.008054  -2.840130   0.000715  -0.000721  25.480400  -0.516309  -1.083350  20.851600  -0.002416   0.000039  14.596100  -0.001672   0.001638  27.556800  -2.068190  -3.954860  29.855300   0.001627  -0.001078  19.883700  -0.011441  -0.000833  28.190000  -2.110780  -3.931860  33.886000  -0.007841   0.002571  22.568000   0.000360  -0.004143  31.196500  -2.314100  -3.816260  46.910600  -0.005000   0.002287  31.242400  -0.003044   0.000000   3.731230   2.138060   0.533896   0.302660   0.124984  13.927800  -3.872950  -3.480970  -1.071260  -0.000000   0.000000  -0.000000  -1.733880   2.360370  -2.948710   1.841580   0.376047 -13.094400   1.059880  -3.356310  -1.506180  -0.000000   0.000000   0.000000
